<svg xmlns="http://www.w3.org/2000/svg" width="800" height="820" viewBox="0 0 800 820" role="img" aria-label="Two families, one">
  <defs>
    <linearGradient id="bg-800x820-8" x1="0" y1="0" x2="0.65" y2="1">
      <stop offset="0%" stop-color="#F2E7D2"/>
      <stop offset="100%" stop-color="#C8AC7C"/>
    </linearGradient>
    <radialGradient id="glow-800x820-8" cx="0.5" cy="0.4" r="0.7">
      <stop offset="0%" stop-color="#FDF9F5" stop-opacity="0.7"/>
      <stop offset="100%" stop-color="#FDF9F5" stop-opacity="0"/>
    </radialGradient>
    <radialGradient id="vig-800x820-8" cx="0.5" cy="0.46" r="0.72">
      <stop offset="55%" stop-color="#463421" stop-opacity="0"/>
      <stop offset="100%" stop-color="#463421" stop-opacity="0.42"/>
    </radialGradient>
  </defs>

  <rect width="800" height="820" fill="url(#bg-800x820-8)"/>
  <rect width="800" height="820" fill="url(#glow-800x820-8)"/>

  
    <path d="M0 -104L19.9 -48.04L73.54 -73.54L48.04 -19.9L104 0L48.04 19.9L73.54 73.54L19.9 48.04L0 104L-19.9 48.04L-73.54 73.54L-48.04 19.9L-104 0L-48.04 -19.9L-73.54 -73.54L-19.9 -48.04Z" fill="#9C7A33" fill-opacity="0.12" stroke="#9C7A33" stroke-opacity="0.3" stroke-width="2.08" stroke-linejoin="round"/>
    <path d="M800 -104L819.9 -48.04L873.54 -73.54L848.04 -19.9L904 0L848.04 19.9L873.54 73.54L819.9 48.04L800 104L780.1 48.04L726.46 73.54L751.96 19.9L696 0L751.96 -19.9L726.46 -73.54L780.1 -48.04Z" fill="#9C7A33" fill-opacity="0.12" stroke="#9C7A33" stroke-opacity="0.3" stroke-width="2.08" stroke-linejoin="round"/>
    <path d="M0 716L19.9 771.96L73.54 746.46L48.04 800.1L104 820L48.04 839.9L73.54 893.54L19.9 868.04L0 924L-19.9 868.04L-73.54 893.54L-48.04 839.9L-104 820L-48.04 800.1L-73.54 746.46L-19.9 771.96Z" fill="#9C7A33" fill-opacity="0.12" stroke="#9C7A33" stroke-opacity="0.3" stroke-width="2.08" stroke-linejoin="round"/>
    <path d="M800 716L819.9 771.96L873.54 746.46L848.04 800.1L904 820L848.04 839.9L873.54 893.54L819.9 868.04L800 924L780.1 868.04L726.46 893.54L751.96 839.9L696 820L751.96 800.1L726.46 746.46L780.1 771.96Z" fill="#9C7A33" fill-opacity="0.12" stroke="#9C7A33" stroke-opacity="0.3" stroke-width="2.08" stroke-linejoin="round"/>
  
  <g opacity="1">
    <circle cx="400" cy="360.8" r="222.72" fill="none" stroke="#9C7A33" stroke-opacity="0.3" stroke-width="2.3"/>
    <path d="M474.94 179.87L580.93 285.86L580.93 435.74L474.94 541.73L325.06 541.73L219.07 435.74L219.07 285.86L325.06 179.87Z" fill="none" stroke="#9C7A33" stroke-opacity="0.45" stroke-width="3.07"/>
    <path d="M400 168.8L436.74 272.11L535.76 225.04L488.69 324.06L592 360.8L488.69 397.54L535.76 496.56L436.74 449.49L400 552.8L363.26 449.49L264.24 496.56L311.31 397.54L208 360.8L311.31 324.06L264.24 225.04L363.26 272.11Z" fill="#9C7A33" fill-opacity="0.16" stroke="#9C7A33" stroke-opacity="0.62" stroke-width="3.46" stroke-linejoin="round"/>
    <path d="M445.55 250.82L442.09 318.71L509.98 315.25L459.52 360.8L509.98 406.35L442.09 402.89L445.55 470.78L400 420.32L354.45 470.78L357.91 402.89L290.02 406.35L340.48 360.8L290.02 315.25L357.91 318.71L354.45 250.82L400 301.28Z" fill="#9C7A33" fill-opacity="0.22" stroke="#9C7A33" stroke-opacity="0.5" stroke-width="2.69" stroke-linejoin="round"/>
    <path d="M400 303.2L440.73 320.07L457.6 360.8L440.73 401.53L400 418.4L359.27 401.53L342.4 360.8L359.27 320.07Z" fill="#9C7A33" fill-opacity="0.3" stroke="#9C7A33" stroke-opacity="0.7" stroke-width="2.3"/>
  </g>

  

  <rect width="800" height="820" fill="url(#vig-800x820-8)"/>

  <g>
    <line x1="272" y1="696" x2="528" y2="696" stroke="#9C7A33" stroke-opacity="0.5" stroke-width="3.2"/>
    <text x="400" y="748" text-anchor="middle"
      font-family="Helvetica, Arial, sans-serif" font-size="28.8"
      fill="#463421" fill-opacity="0.72" letter-spacing="11.2">TWO FAMILIES, ONE</text>
  </g>

  <rect x="24" y="24" width="752" height="772"
    fill="none" stroke="#9C7A33" stroke-opacity="0.35" stroke-width="2.4"/>
</svg>
