<svg xmlns="http://www.w3.org/2000/svg" width="800" height="1120" viewBox="0 0 800 1120" role="img" aria-label="Khaja &amp; Saniya">
  <defs>
    <linearGradient id="bg-800x1120-4" x1="0" y1="0" x2="0.65" y2="1">
      <stop offset="0%" stop-color="#F4E9D8"/>
      <stop offset="100%" stop-color="#D2B588"/>
    </linearGradient>
    <radialGradient id="glow-800x1120-4" cx="0.5" cy="0.4" r="0.7">
      <stop offset="0%" stop-color="#FDF9F5" stop-opacity="0.7"/>
      <stop offset="100%" stop-color="#FDF9F5" stop-opacity="0"/>
    </radialGradient>
    <radialGradient id="vig-800x1120-4" cx="0.5" cy="0.46" r="0.72">
      <stop offset="55%" stop-color="#4A3724" stop-opacity="0"/>
      <stop offset="100%" stop-color="#4A3724" stop-opacity="0.42"/>
    </radialGradient>
  </defs>

  <rect width="800" height="1120" fill="url(#bg-800x1120-4)"/>
  <rect width="800" height="1120" fill="url(#glow-800x1120-4)"/>

  
    <path d="M0 -104L19.9 -48.04L73.54 -73.54L48.04 -19.9L104 0L48.04 19.9L73.54 73.54L19.9 48.04L0 104L-19.9 48.04L-73.54 73.54L-48.04 19.9L-104 0L-48.04 -19.9L-73.54 -73.54L-19.9 -48.04Z" fill="#9C7A33" fill-opacity="0.12" stroke="#9C7A33" stroke-opacity="0.3" stroke-width="2.08" stroke-linejoin="round"/>
    <path d="M800 -104L819.9 -48.04L873.54 -73.54L848.04 -19.9L904 0L848.04 19.9L873.54 73.54L819.9 48.04L800 104L780.1 48.04L726.46 73.54L751.96 19.9L696 0L751.96 -19.9L726.46 -73.54L780.1 -48.04Z" fill="#9C7A33" fill-opacity="0.12" stroke="#9C7A33" stroke-opacity="0.3" stroke-width="2.08" stroke-linejoin="round"/>
    <path d="M0 1016L19.9 1071.96L73.54 1046.46L48.04 1100.1L104 1120L48.04 1139.9L73.54 1193.54L19.9 1168.04L0 1224L-19.9 1168.04L-73.54 1193.54L-48.04 1139.9L-104 1120L-48.04 1100.1L-73.54 1046.46L-19.9 1071.96Z" fill="#9C7A33" fill-opacity="0.12" stroke="#9C7A33" stroke-opacity="0.3" stroke-width="2.08" stroke-linejoin="round"/>
    <path d="M800 1016L819.9 1071.96L873.54 1046.46L848.04 1100.1L904 1120L848.04 1139.9L873.54 1193.54L819.9 1168.04L800 1224L780.1 1168.04L726.46 1193.54L751.96 1139.9L696 1120L751.96 1100.1L726.46 1046.46L780.1 1071.96Z" fill="#9C7A33" fill-opacity="0.12" stroke="#9C7A33" stroke-opacity="0.3" stroke-width="2.08" stroke-linejoin="round"/>
  
  <g opacity="1">
    <circle cx="400" cy="492.8" r="222.72" fill="none" stroke="#9C7A33" stroke-opacity="0.3" stroke-width="2.3"/>
    <path d="M474.94 311.87L580.93 417.86L580.93 567.74L474.94 673.73L325.06 673.73L219.07 567.74L219.07 417.86L325.06 311.87Z" fill="none" stroke="#9C7A33" stroke-opacity="0.45" stroke-width="3.07"/>
    <path d="M400 300.8L436.74 404.11L535.76 357.04L488.69 456.06L592 492.8L488.69 529.54L535.76 628.56L436.74 581.49L400 684.8L363.26 581.49L264.24 628.56L311.31 529.54L208 492.8L311.31 456.06L264.24 357.04L363.26 404.11Z" fill="#9C7A33" fill-opacity="0.16" stroke="#9C7A33" stroke-opacity="0.62" stroke-width="3.46" stroke-linejoin="round"/>
    <path d="M445.55 382.82L442.09 450.71L509.98 447.25L459.52 492.8L509.98 538.35L442.09 534.89L445.55 602.78L400 552.32L354.45 602.78L357.91 534.89L290.02 538.35L340.48 492.8L290.02 447.25L357.91 450.71L354.45 382.82L400 433.28Z" fill="#9C7A33" fill-opacity="0.22" stroke="#9C7A33" stroke-opacity="0.5" stroke-width="2.69" stroke-linejoin="round"/>
    <path d="M400 435.2L440.73 452.07L457.6 492.8L440.73 533.53L400 550.4L359.27 533.53L342.4 492.8L359.27 452.07Z" fill="#9C7A33" fill-opacity="0.3" stroke="#9C7A33" stroke-opacity="0.7" stroke-width="2.3"/>
  </g>

  

  <rect width="800" height="1120" fill="url(#vig-800x1120-4)"/>

  <g>
    <line x1="272" y1="996" x2="528" y2="996" stroke="#9C7A33" stroke-opacity="0.5" stroke-width="3.2"/>
    <text x="400" y="1048" text-anchor="middle"
      font-family="Helvetica, Arial, sans-serif" font-size="28.8"
      fill="#4A3724" fill-opacity="0.72" letter-spacing="11.2">KHAJA &amp; SANIYA</text>
  </g>

  <rect x="24" y="24" width="752" height="1072"
    fill="none" stroke="#9C7A33" stroke-opacity="0.35" stroke-width="2.4"/>
</svg>
